<svg width="60" height="30" viewBox="0 0 60 30" fill="none" xmlns="http://www.w3.org/2000/svg">
    <path d="M44.5312 0H15.4688C6.92562 0 0 6.71573 0 15C0 23.2843 6.92562 30 15.4688 30H44.5312C53.0744 30 60 23.2843 60 15C60 6.71573 53.0744 0 44.5312 0Z" fill="white" />
    <path d="M43.9865 27.5472C51.176 27.5472 57.0043 21.8941 57.0043 14.9208C57.0043 7.94738 51.176 2.29434 43.9865 2.29434C36.797 2.29434 30.9688 7.94738 30.9688 14.9208C30.9688 21.8941 36.797 27.5472 43.9865 27.5472Z" fill="#4FBBEB" stroke="#010101" stroke-width="0.75" stroke-miterlimit="10" />
    <path d="M16.0369 27.5472C23.2264 27.5472 29.0547 21.8941 29.0547 14.9208C29.0547 7.94738 23.2264 2.29434 16.0369 2.29434C8.84742 2.29434 3.01917 7.94738 3.01917 14.9208C3.01917 21.8941 8.84742 27.5472 16.0369 27.5472Z" fill="#4FBBEB" stroke="#010101" stroke-width="0.75" stroke-miterlimit="10" />
    <path d="M43.9865 24.7547C49.586 24.7547 54.1253 20.3519 54.1253 14.9208C54.1253 9.48961 49.586 5.08679 43.9865 5.08679C38.3871 5.08679 33.8478 9.48961 33.8478 14.9208C33.8478 20.3519 38.3871 24.7547 43.9865 24.7547Z" fill="white" stroke="#010101" stroke-width="1.5" stroke-miterlimit="10" />
    <path d="M16.0368 24.7547C21.6363 24.7547 26.1756 20.3519 26.1756 14.9208C26.1756 9.48961 21.6363 5.08679 16.0368 5.08679C10.4374 5.08679 5.89807 9.48961 5.89807 14.9208C5.89807 20.3519 10.4374 24.7547 16.0368 24.7547Z" fill="white" stroke="#010101" stroke-width="1.5" stroke-miterlimit="10" />
    <path d="M20.0145 20.2311C21.7034 20.2311 23.0725 18.2206 23.0725 15.7406C23.0725 13.2605 21.7034 11.25 20.0145 11.25C18.3256 11.25 16.9565 13.2605 16.9565 15.7406C16.9565 18.2206 18.3256 20.2311 20.0145 20.2311Z" fill="#010101" />
    <path d="M20.7925 16.5028C21.4543 16.5028 21.9908 15.7155 21.9908 14.7443C21.9908 13.7731 21.4543 12.9858 20.7925 12.9858C20.1307 12.9858 19.5942 13.7731 19.5942 14.7443C19.5942 15.7155 20.1307 16.5028 20.7925 16.5028Z" fill="white" />
    <path d="M47.964 20.2311C49.6528 20.2311 51.0219 18.2206 51.0219 15.7406C51.0219 13.2605 49.6528 11.25 47.964 11.25C46.2751 11.25 44.906 13.2605 44.906 15.7406C44.906 18.2206 46.2751 20.2311 47.964 20.2311Z" fill="#010101" />
    <path d="M48.742 16.5028C49.4038 16.5028 49.9403 15.7155 49.9403 14.7443C49.9403 13.7731 49.4038 12.9858 48.742 12.9858C48.0802 12.9858 47.5437 13.7731 47.5437 14.7443C47.5437 15.7155 48.0802 16.5028 48.742 16.5028Z" fill="white" />
</svg>
    