<svg id="visual" viewBox="0 0 960 540" width="960" height="540" xmlns="http://www.w3.org/2000/svg" xmlns:xlink="http://www.w3.org/1999/xlink" version="1.1"><rect x="0" y="0" width="960" height="540" fill="#0294fc"></rect><defs><linearGradient id="grad1_0" x1="43.8%" y1="100%" x2="100%" y2="0%"><stop offset="14.444444444444446%" stop-color="#054f84" stop-opacity="1"></stop><stop offset="85.55555555555554%" stop-color="#054f84" stop-opacity="1"></stop></linearGradient></defs><defs><linearGradient id="grad1_1" x1="43.8%" y1="100%" x2="100%" y2="0%"><stop offset="14.444444444444446%" stop-color="#054f84" stop-opacity="1"></stop><stop offset="85.55555555555554%" stop-color="#0065aa" stop-opacity="1"></stop></linearGradient></defs><defs><linearGradient id="grad1_2" x1="43.8%" y1="100%" x2="100%" y2="0%"><stop offset="14.444444444444446%" stop-color="#007cd3" stop-opacity="1"></stop><stop offset="85.55555555555554%" stop-color="#0065aa" stop-opacity="1"></stop></linearGradient></defs><defs><linearGradient id="grad1_3" x1="43.8%" y1="100%" x2="100%" y2="0%"><stop offset="14.444444444444446%" stop-color="#007cd3" stop-opacity="1"></stop><stop offset="85.55555555555554%" stop-color="#0294fc" stop-opacity="1"></stop></linearGradient></defs><defs><linearGradient id="grad2_0" x1="0%" y1="100%" x2="56.3%" y2="0%"><stop offset="14.444444444444446%" stop-color="#054f84" stop-opacity="1"></stop><stop offset="85.55555555555554%" stop-color="#054f84" stop-opacity="1"></stop></linearGradient></defs><defs><linearGradient id="grad2_1" x1="0%" y1="100%" x2="56.3%" y2="0%"><stop offset="14.444444444444446%" stop-color="#0065aa" stop-opacity="1"></stop><stop offset="85.55555555555554%" stop-color="#054f84" stop-opacity="1"></stop></linearGradient></defs><defs><linearGradient id="grad2_2" x1="0%" y1="100%" x2="56.3%" y2="0%"><stop offset="14.444444444444446%" stop-color="#0065aa" stop-opacity="1"></stop><stop offset="85.55555555555554%" stop-color="#007cd3" stop-opacity="1"></stop></linearGradient></defs><defs><linearGradient id="grad2_3" x1="0%" y1="100%" x2="56.3%" y2="0%"><stop offset="14.444444444444446%" stop-color="#0294fc" stop-opacity="1"></stop><stop offset="85.55555555555554%" stop-color="#007cd3" stop-opacity="1"></stop></linearGradient></defs><g transform="translate(960, 540)"><path d="M-378 0C-380.9 -35.8 -383.9 -71.6 -365.1 -97.8C-346.4 -124.1 -306 -140.7 -284.1 -164C-262.1 -187.3 -258.7 -217.1 -246.1 -246.1C-233.4 -275 -211.6 -303.1 -184.5 -319.6C-157.4 -336 -125.1 -340.9 -93.4 -348.7C-61.8 -356.5 -30.9 -367.3 0 -378L0 0Z" fill="#0088e7"></path><path d="M-283.5 0C-285.7 -26.8 -287.9 -53.7 -273.8 -73.4C-259.8 -93.1 -229.5 -105.6 -213 -123C-196.6 -140.4 -194 -162.8 -184.6 -184.6C-175.1 -206.3 -158.7 -227.3 -138.4 -239.7C-118.1 -252 -93.8 -255.7 -70.1 -261.5C-46.4 -267.4 -23.2 -275.4 0 -283.5L0 0Z" fill="#0071be"></path><path d="M-189 0C-190.5 -17.9 -191.9 -35.8 -182.6 -48.9C-173.2 -62 -153 -70.4 -142 -82C-131.1 -93.6 -129.4 -108.6 -123 -123C-116.7 -137.5 -105.8 -151.5 -92.3 -159.8C-78.7 -168 -62.5 -170.4 -46.7 -174.3C-30.9 -178.3 -15.5 -183.6 0 -189L0 0Z" fill="#025a97"></path><path d="M-94.5 0C-95.2 -8.9 -96 -17.9 -91.3 -24.5C-86.6 -31 -76.5 -35.2 -71 -41C-65.5 -46.8 -64.7 -54.3 -61.5 -61.5C-58.4 -68.8 -52.9 -75.8 -46.1 -79.9C-39.4 -84 -31.3 -85.2 -23.4 -87.2C-15.5 -89.1 -7.7 -91.8 0 -94.5L0 0Z" fill="#054f84"></path></g><g transform="translate(0, 0)"><path d="M378 0C375.6 32.5 373.1 65 365.1 97.8C357.1 130.7 343.6 163.8 317.8 183.5C292.1 203.2 254.1 209.4 229.8 229.8C205.5 250.2 194.7 284.7 172 297.9C149.3 311.2 114.5 303.2 83.9 313C53.2 322.8 26.6 350.4 0 378L0 0Z" fill="#0088e7"></path><path d="M283.5 0C281.7 24.4 279.8 48.8 273.8 73.4C267.8 98 257.7 122.9 238.4 137.6C219.1 152.4 190.6 157.1 172.4 172.4C154.1 187.6 146.1 213.5 129 223.4C111.9 233.4 85.9 227.4 62.9 234.7C39.9 242.1 19.9 262.8 0 283.5L0 0Z" fill="#0071be"></path><path d="M189 0C187.8 16.3 186.6 32.5 182.6 48.9C178.6 65.3 171.8 81.9 158.9 91.7C146 101.6 127.1 104.7 114.9 114.9C102.7 125.1 97.4 142.3 86 149C74.6 155.6 57.3 151.6 41.9 156.5C26.6 161.4 13.3 175.2 0 189L0 0Z" fill="#025a97"></path><path d="M94.5 0C93.9 8.1 93.3 16.3 91.3 24.5C89.3 32.7 85.9 41 79.5 45.9C73 50.8 63.5 52.4 57.5 57.5C51.4 62.5 48.7 71.2 43 74.5C37.3 77.8 28.6 75.8 21 78.2C13.3 80.7 6.6 87.6 0 94.5L0 0Z" fill="#054f84"></path></g></svg>