<svg width="188" height="33" viewBox="0 0 188 33" fill="none" xmlns="http://www.w3.org/2000/svg">
<path d="M26.8519 26.6794C26.8519 29.9939 29.3048 32.6809 32.3307 32.6809H50.5638C52.2979 32.6809 53.7037 31.141 53.7037 29.2415C53.7037 27.342 52.2979 25.8022 50.5638 25.8022H37.269C37.1856 25.8022 37.118 25.7281 37.118 25.6367C37.118 25.5878 37.1377 25.5414 37.1719 25.51L43.2104 19.9568C44.1884 19.0575 44.7531 17.7305 44.7531 16.3318C44.7531 14.9431 44.1963 13.6244 43.2301 12.7251L37.2631 7.17097C37.2293 7.13945 37.2097 7.09323 37.2097 7.04456C37.2097 6.95295 37.2775 6.87868 37.3612 6.87868L50.5638 6.87868C52.2979 6.87868 53.7037 5.33883 53.7037 3.43934C53.7037 1.53984 52.2979 6.68841e-08 50.5638 1.4939e-07L26.8519 1.27756e-06V8.74819L34.5784 16.0572C34.6536 16.1283 34.6967 16.2317 34.6967 16.3404C34.6967 16.4492 34.6536 16.5525 34.5784 16.6236L28.7497 22.1374C27.5446 23.2774 26.8519 24.9353 26.8519 26.6794Z" fill="white"/>
<path d="M5.24524 0C2.34838 0 0 2.57235 0 5.74549V28.8976C0 30.987 1.54635 32.6809 3.45387 32.6809C5.36139 32.6809 6.90774 30.987 6.90774 28.8976V12.653C6.90774 12.5656 6.97245 12.4947 7.05228 12.4947C7.112 12.4947 7.16557 12.5349 7.1871 12.5959L13.4058 30.2162C13.8859 31.5765 15.0803 32.4734 16.4117 32.4734C17.7409 32.4734 18.9338 31.5795 19.4154 30.2224L25.6676 12.6064L26.8519 8.74819V1.27756e-06C25.1489 5.05537e-07 23.6166 1.13277 22.9794 2.86266L16.6458 20.0593C16.6069 20.1649 16.5134 20.234 16.4095 20.234C16.3055 20.234 16.212 20.1649 16.1731 20.0593L10.1096 3.59591C9.30923 1.42292 7.3844 0 5.24524 0Z" fill="white"/>
<path d="M139.932 21.4077C139.914 21.499 139.907 21.593 139.926 21.6839C140.023 22.1336 140.39 22.4681 140.827 22.4681H146.256C146.768 22.4681 147.182 22.0108 147.182 21.4468V21.4178C147.182 20.8537 146.768 20.3965 146.256 20.3965H143.105C142.594 20.3965 142.179 19.9392 142.179 19.3752V18.5802C142.179 18.0162 142.594 17.559 143.105 17.559H145.862C146.373 17.559 146.788 17.1017 146.788 16.5377V16.5087C146.788 15.9446 146.373 15.4874 145.862 15.4874H143.105C142.594 15.4874 142.179 15.0302 142.179 14.4661V13.677C142.179 13.1129 142.594 12.6557 143.105 12.6557H146.235C146.747 12.6557 147.161 12.1984 147.161 11.6344V11.6054C147.161 11.0413 146.747 10.5841 146.235 10.5841H142.86C142.382 10.5841 141.97 10.9234 141.879 11.3933L139.932 21.4077Z" fill="white"/>
<path d="M67.5928 22.4681C67.2644 22.4681 66.976 22.2796 66.8116 21.9953C66.7304 21.8548 66.73 21.6857 66.761 21.5264L68.7243 11.4266C68.8184 10.9422 69.3279 10.5901 69.6013 11.0008C69.6454 11.067 69.6827 11.1398 69.7118 11.2181L72.4194 18.5042C72.4339 18.5432 72.4683 18.5686 72.5065 18.5686C72.5447 18.5686 72.5791 18.5432 72.5936 18.5042L75.3012 11.2181C75.4437 10.8346 75.7822 10.5841 76.158 10.5841H77.4202C77.9316 10.5841 78.3461 11.0413 78.3461 11.6054V21.4468C78.3461 22.0108 77.9316 22.4681 77.4202 22.4681H77.0625C76.5511 22.4681 76.1366 22.0108 76.1366 21.4468V14.7919C76.1366 14.7594 76.1127 14.733 76.0832 14.733C76.0614 14.733 76.0418 14.7477 76.0337 14.77L73.4918 21.7685C73.3511 22.156 73.0107 22.41 72.6323 22.41H72.3816C72.0027 22.41 71.6621 22.1554 71.5216 21.7673L68.9793 14.741C68.9712 14.7187 68.9516 14.704 68.9298 14.704C68.9003 14.704 68.8765 14.7304 68.8765 14.7628V21.4468C68.8765 22.0108 68.4619 22.4681 67.9505 22.4681H67.5928Z" fill="white"/>
<path d="M104.032 13.7241C104.254 14.1083 104.598 14.4255 105.011 14.4255H105.566C106.127 14.4255 106.567 13.8687 106.348 13.298C105.683 11.5635 104.044 10.4216 102.02 10.4216C99.1736 10.4216 96.9798 12.6847 96.9798 16.5377C96.9798 20.2978 99.0315 22.6305 102.067 22.6305C104.787 22.6305 106.728 20.733 106.728 17.6054V17.1296C106.728 16.5655 106.314 16.1083 105.802 16.1083H103.077C102.604 16.1083 102.22 16.5318 102.22 17.0541C102.22 17.5765 102.604 18 103.077 18H103.586C104.106 18 104.55 18.4918 104.343 19.0176C103.998 19.8903 103.206 20.4081 102.078 20.4081C100.368 20.4081 99.2893 18.998 99.2893 16.5145C99.2893 14.0425 100.41 12.6441 102.057 12.6441C102.957 12.6441 103.635 13.0373 104.032 13.7241Z" fill="white"/>
<path fill-rule="evenodd" clip-rule="evenodd" d="M85.4734 21.7629C85.3493 22.1834 84.9939 22.4681 84.5929 22.4681H84.1234C83.4872 22.4681 83.0406 21.7768 83.2482 21.1135L86.3284 11.2721C86.4572 10.8604 86.8087 10.5841 87.2036 10.5841H88.8191C89.2142 10.5841 89.5657 10.8606 89.6945 11.2725L92.7703 21.1139C92.9776 21.7771 92.5309 22.4681 91.8949 22.4681H91.4248C91.0239 22.4681 90.6685 22.1834 90.5444 21.7629L90.1609 20.4634C90.0368 20.0428 89.6814 19.7582 89.2804 19.7582H86.7373C86.3364 19.7582 85.981 20.0428 85.8569 20.4634L85.4734 21.7629ZM87.0378 16.4598C86.8433 17.1197 87.2892 17.7969 87.9184 17.7969H88.1046C88.7338 17.7969 89.1797 17.1197 88.9852 16.4598L88.0666 13.3439C88.0588 13.3176 88.0366 13.2998 88.0115 13.2998C87.9864 13.2998 87.9642 13.3176 87.9564 13.3439L87.0378 16.4598Z" fill="white"/>
<path d="M112.977 10.5841C113.488 10.5841 113.903 11.0413 113.903 11.6054V21.4468C113.903 22.0108 113.488 22.4681 112.977 22.4681H112.551C112.039 22.4681 111.625 22.0108 111.625 21.4468V11.6054C111.625 11.0413 112.039 10.5841 112.551 10.5841H112.977Z" fill="white"/>
<path d="M127.424 14.7446C127.98 14.7446 128.419 14.2022 128.24 13.6224C127.608 11.5742 125.923 10.4216 123.792 10.4216C120.945 10.4216 118.773 12.6383 118.773 16.5261C118.773 20.4023 120.909 22.6305 123.792 22.6305C126.075 22.6305 127.61 21.2467 128.214 19.5311C128.414 18.9603 127.98 18.4153 127.425 18.4125L126.936 18.41C126.489 18.4078 126.126 18.7753 125.906 19.2049C125.51 19.9782 124.76 20.4081 123.828 20.4081C122.192 20.4081 121.082 19.0677 121.082 16.5261C121.082 14.0541 122.176 12.6441 123.844 12.6441C124.796 12.6441 125.545 13.1072 125.924 13.9071C126.137 14.3564 126.505 14.7446 126.964 14.7446H127.424Z" fill="white"/>
<path fill-rule="evenodd" clip-rule="evenodd" d="M155.977 22.4681C159.26 22.4681 161.249 20.2282 161.249 16.5145C161.249 12.8123 159.26 10.5841 156.009 10.5841H153.084C152.572 10.5841 152.158 11.0413 152.158 11.6054V21.4468C152.158 22.0108 152.572 22.4681 153.084 22.4681H155.977ZM155.362 20.3153C154.85 20.3153 154.436 19.858 154.436 19.294V13.7582C154.436 13.1942 154.85 12.7369 155.362 12.7369H155.888C157.908 12.7369 158.976 13.8742 158.976 16.5145C158.976 19.1663 157.908 20.3153 155.882 20.3153H155.362Z" fill="white"/>
<path d="M167.047 22.4681C166.536 22.4681 166.121 22.0108 166.121 21.4468V11.6054C166.121 11.0413 166.536 10.5841 167.047 10.5841H172.455C172.967 10.5841 173.381 11.0413 173.381 11.6054V11.6344C173.381 12.1984 172.967 12.6557 172.455 12.6557H169.325C168.814 12.6557 168.399 13.1129 168.399 13.677V14.4661C168.399 15.0302 168.814 15.4874 169.325 15.4874H172.082C172.593 15.4874 173.008 15.9446 173.008 16.5087V16.5377C173.008 17.1017 172.593 17.559 172.082 17.559H169.325C168.814 17.559 168.399 18.0162 168.399 18.5802V19.3752C168.399 19.9392 168.814 20.3965 169.325 20.3965H172.476C172.988 20.3965 173.402 20.8537 173.402 21.4178V21.4468C173.402 22.0108 172.988 22.4681 172.476 22.4681H167.047Z" fill="white"/>
<path d="M187.389 11.6054C187.389 11.0413 186.975 10.5841 186.464 10.5841H186.048C185.537 10.5841 185.122 11.0413 185.122 11.6054V17.9896C185.122 18.0274 185.094 18.058 185.06 18.058C185.04 18.058 185.02 18.0469 185.009 18.0283L180.653 11.0275C180.48 10.75 180.194 10.5841 179.889 10.5841H179.303C178.792 10.5841 178.378 11.0413 178.378 11.6054V21.4468C178.378 22.0108 178.792 22.4681 179.303 22.4681H179.73C180.241 22.4681 180.655 22.0108 180.655 21.4468V15.0455C180.655 15.0139 180.679 14.9884 180.707 14.9884C180.724 14.9884 180.74 14.9976 180.75 15.013L185.146 22.0275C185.319 22.3034 185.603 22.4681 185.907 22.4681H186.464C186.975 22.4681 187.389 22.0108 187.389 21.4468V11.6054Z" fill="white"/>
</svg>
